<svg width="24" height="25" viewBox="0 0 24 25" fill="none" xmlns="http://www.w3.org/2000/svg">
<path d="M11.949 14.626C15.3802 14.626 18.31 15.17 18.31 17.3468C18.31 19.5226 15.399 20.0864 11.949 20.0864C8.51785 20.0864 5.58809 19.5425 5.58809 17.3666C5.58809 15.1898 8.49904 14.626 11.949 14.626ZM17.4351 13.3153C18.7468 13.291 20.1571 13.4711 20.6782 13.599C21.7823 13.816 22.5084 14.2591 22.8093 14.9031C23.0636 15.4317 23.0636 16.045 22.8093 16.5728C22.349 17.5716 20.8654 17.8922 20.2887 17.975C20.1696 17.9931 20.0738 17.8895 20.0864 17.7697C20.3809 15.0021 18.0377 13.69 17.4315 13.3883C17.4055 13.3747 17.4002 13.354 17.4028 13.3414C17.4046 13.3324 17.4154 13.318 17.4351 13.3153ZM6.5656 13.3157C6.5853 13.3184 6.59515 13.3328 6.59694 13.3409C6.59962 13.3544 6.59425 13.3742 6.56918 13.3886C5.9621 13.6903 3.61883 15.0025 3.91342 17.7692C3.92595 17.8898 3.83104 17.9925 3.71195 17.9754C3.13531 17.8925 1.65163 17.5719 1.19139 16.5732C0.936203 16.0445 0.936203 15.4321 1.19139 14.9034C1.49225 14.2595 2.21752 13.8164 3.32156 13.5985C3.84358 13.4715 5.25294 13.2913 6.5656 13.3157ZM11.949 4.08643C14.2851 4.08643 16.1583 5.96869 16.1583 8.31928C16.1583 10.669 14.2851 12.553 11.949 12.553C9.61292 12.553 7.73974 10.669 7.73974 8.31928C7.73974 5.96869 9.61292 4.08643 11.949 4.08643ZM17.6634 4.79232C19.9198 4.79232 21.6918 6.92766 21.0883 9.30616C20.6809 10.9074 19.2062 11.9711 17.5631 11.9278C17.3984 11.9233 17.2363 11.908 17.0796 11.881C16.9659 11.8612 16.9086 11.7324 16.973 11.6369C17.5998 10.7093 17.9571 9.59346 17.9571 8.39565C17.9571 7.14561 17.5667 5.98022 16.8889 5.02468C16.8674 4.99496 16.8513 4.94903 16.8728 4.9148C16.8907 4.88689 16.9238 4.87248 16.9551 4.86527C17.1835 4.81844 17.4181 4.79232 17.6634 4.79232ZM6.33593 4.79223C6.58127 4.79223 6.81586 4.81835 7.04509 4.86518C7.07553 4.87239 7.10956 4.8877 7.12746 4.91471C7.14806 4.94894 7.13284 4.99487 7.11135 5.02459C6.43353 5.98013 6.04313 7.14552 6.04313 8.39556C6.04313 9.59337 6.4004 10.7092 7.02718 11.6368C7.09165 11.7323 7.03434 11.8611 6.92063 11.8809C6.76304 11.9088 6.60186 11.9232 6.43711 11.9277C4.79404 11.971 3.31932 10.9074 2.91191 9.30607C2.30751 6.92757 4.07951 4.79223 6.33593 4.79223Z" fill="black"/>
</svg>
