<svg width="24" height="25" viewBox="0 0 24 25" fill="none" xmlns="http://www.w3.org/2000/svg">
<path d="M9.5 15.4854C13.5668 15.4854 17 16.1546 17 18.739C17 21.3234 13.5448 21.9702 9.5 21.9702C5.4332 21.9702 2 21.3 2 18.7167C2 16.1323 5.45422 15.4854 9.5 15.4854ZM18.999 7.97021C19.4952 7.97021 19.8979 8.37966 19.8979 8.88183V10.0581H21.101C21.5962 10.0581 22 10.4675 22 10.9697C22 11.4719 21.5962 11.8813 21.101 11.8813H19.8979V13.0586C19.8979 13.5608 19.4952 13.9702 18.999 13.9702C18.5038 13.9702 18.1 13.5608 18.1 13.0586V11.8813H16.899C16.4027 11.8813 16 11.4719 16 10.9697C16 10.4675 16.4027 10.0581 16.899 10.0581H18.1V8.88183C18.1 8.37966 18.5038 7.97021 18.999 7.97021ZM9.5 2.97021C12.2546 2.97021 14.4626 5.20684 14.4626 7.99706C14.4626 10.7873 12.2546 13.0239 9.5 13.0239C6.74543 13.0239 4.53737 10.7873 4.53737 7.99706C4.53737 5.20684 6.74543 2.97021 9.5 2.97021Z" fill="black"/>
</svg>
