<svg width="24" height="25" viewBox="0 0 24 25" fill="none" xmlns="http://www.w3.org/2000/svg">
<path d="M9.5 15.1016C13.5668 15.1016 17 15.7708 17 18.3552C17 20.9396 13.5448 21.5864 9.5 21.5864C5.4332 21.5864 2 20.9162 2 18.3329C2 15.7485 5.45422 15.1016 9.5 15.1016ZM18.999 7.58643C19.4952 7.58643 19.8979 7.99587 19.8979 8.49804V9.67429H21.101C21.5962 9.67429 22 10.0837 22 10.5859C22 11.0881 21.5962 11.4975 21.101 11.4975H19.8979V12.6748C19.8979 13.177 19.4952 13.5864 18.999 13.5864C18.5038 13.5864 18.1 13.177 18.1 12.6748V11.4975H16.899C16.4027 11.4975 16 11.0881 16 10.5859C16 10.0837 16.4027 9.67429 16.899 9.67429H18.1V8.49804C18.1 7.99587 18.5038 7.58643 18.999 7.58643ZM9.5 2.58643C12.2546 2.58643 14.4626 4.82306 14.4626 7.61327C14.4626 10.4035 12.2546 12.6401 9.5 12.6401C6.74543 12.6401 4.53737 10.4035 4.53737 7.61327C4.53737 4.82306 6.74543 2.58643 9.5 2.58643Z" fill="black"/>
</svg>
