<svg width="33" height="33" viewBox="0 0 33 33" fill="none" xmlns="http://www.w3.org/2000/svg">
<g clip-path="url(#clip0_2512_1368)">
<path d="M27.6902 9.27498C27.3173 8.3915 26.7796 7.5909 26.1072 6.918C25.4344 6.24308 24.641 5.70674 23.7704 5.33813C22.8676 4.95439 21.8993 4.75797 20.9217 4.76027C19.5502 4.76027 18.212 5.14456 17.0492 5.87045C16.771 6.04409 16.5067 6.23481 16.2563 6.44261C16.0059 6.23481 15.7417 6.04409 15.4635 5.87045C14.3006 5.14456 12.9625 4.76027 11.591 4.76027C10.6034 4.76027 9.6464 4.95384 8.74227 5.33813C7.86873 5.70819 7.08144 6.24051 6.40542 6.918C5.73218 7.59014 5.19438 8.39093 4.82249 9.27498C4.4358 10.1944 4.23828 11.1708 4.23828 12.1757C4.23828 13.1236 4.42745 14.1113 4.80302 15.1162C5.11738 15.9559 5.56806 16.827 6.14392 17.7066C7.0564 19.0986 8.31106 20.5504 9.86896 22.022C12.4506 24.4616 15.0072 26.1468 15.1157 26.2151L15.775 26.6478C16.0672 26.8385 16.4427 26.8385 16.7348 26.6478L17.3941 26.2151C17.5026 26.1439 20.0565 24.4616 22.6409 22.022C24.1988 20.5504 25.4535 19.0986 26.3659 17.7066C26.9418 16.827 27.3953 15.9559 27.7069 15.1162C28.0824 14.1113 28.2716 13.1236 28.2716 12.1757C28.2744 11.1708 28.0769 10.1944 27.6902 9.27498ZM16.2563 24.3961C16.2563 24.3961 6.35257 17.903 6.35257 12.1757C6.35257 9.27498 8.69775 6.92369 11.591 6.92369C13.6246 6.92369 15.3884 8.0851 16.2563 9.78167C17.1243 8.0851 18.8881 6.92369 20.9217 6.92369C23.8149 6.92369 26.1601 9.27498 26.1601 12.1757C26.1601 17.903 16.2563 24.3961 16.2563 24.3961Z" fill="#937DC2"/>
</g>
<defs>
<clipPath id="clip0_2512_1368">
<rect width="32.0444" height="32.0444" fill="white"/>
</clipPath>
</defs>
</svg>
