<svg width="33" height="33" viewBox="0 0 33 33" fill="none" xmlns="http://www.w3.org/2000/svg">
<path d="M28.4519 10.5147C28.079 9.63125 27.5413 8.83065 26.8689 8.15774C26.1961 7.48283 25.4028 6.94649 24.5321 6.57788C23.6293 6.19414 22.661 5.99772 21.6834 6.00002C20.3119 6.00002 18.9738 6.38431 17.8109 7.11019C17.5327 7.28384 17.2684 7.47456 17.018 7.68236C16.7677 7.47456 16.5034 7.28384 16.2252 7.11019C15.0623 6.38431 13.7242 6.00002 12.3527 6.00002C11.3651 6.00002 10.4081 6.19359 9.50398 6.57788C8.63045 6.94794 7.84316 7.48025 7.16714 8.15774C6.4939 8.82989 5.9561 9.63068 5.58421 10.5147C5.19752 11.4342 5 12.4106 5 13.4154C5 14.3633 5.18917 15.3511 5.56474 16.3559C5.8791 17.1957 6.32977 18.0668 6.90564 18.9463C7.81812 20.3383 9.07278 21.7901 10.6307 23.2618C13.2123 25.7013 15.7689 27.3865 15.8774 27.4548L16.5368 27.8875C16.8289 28.0782 17.2044 28.0782 17.4965 27.8875L18.1559 27.4548C18.2644 27.3837 20.8182 25.7013 23.4026 23.2618C24.9605 21.7901 26.2152 20.3383 27.1277 18.9463C27.7035 18.0668 28.157 17.1957 28.4686 16.3559C28.8441 15.3511 29.0333 14.3633 29.0333 13.4154C29.0361 12.4106 28.8386 11.4342 28.4519 10.5147ZM17.018 25.6359C17.018 25.6359 7.11429 19.1428 7.11429 13.4154C7.11429 10.5147 9.45947 8.16343 12.3527 8.16343C14.3863 8.16343 16.1501 9.32485 17.018 11.0214C17.886 9.32485 19.6498 8.16343 21.6834 8.16343C24.5766 8.16343 26.9218 10.5147 26.9218 13.4154C26.9218 19.1428 17.018 25.6359 17.018 25.6359Z" fill="#937DC2"/>
</svg>
