<svg width="33" height="33" viewBox="0 0 33 33" fill="none" xmlns="http://www.w3.org/2000/svg">
<path d="M28.4519 9.51473C28.079 8.63125 27.5413 7.83065 26.8689 7.15774C26.1961 6.48283 25.4028 5.94649 24.5321 5.57788C23.6293 5.19414 22.661 4.99772 21.6834 5.00002C20.3119 5.00002 18.9738 5.38431 17.8109 6.11019C17.5327 6.28384 17.2684 6.47456 17.018 6.68236C16.7677 6.47456 16.5034 6.28384 16.2252 6.11019C15.0623 5.38431 13.7242 5.00002 12.3527 5.00002C11.3651 5.00002 10.4081 5.19359 9.50398 5.57788C8.63045 5.94794 7.84316 6.48025 7.16714 7.15774C6.4939 7.82989 5.9561 8.63068 5.58421 9.51473C5.19752 10.4342 5 11.4106 5 12.4154C5 13.3633 5.18917 14.3511 5.56474 15.3559C5.8791 16.1957 6.32977 17.0668 6.90564 17.9463C7.81812 19.3383 9.07278 20.7901 10.6307 22.2618C13.2123 24.7013 15.7689 26.3865 15.8774 26.4548L16.5368 26.8875C16.8289 27.0782 17.2044 27.0782 17.4965 26.8875L18.1559 26.4548C18.2644 26.3837 20.8182 24.7013 23.4026 22.2618C24.9605 20.7901 26.2152 19.3383 27.1277 17.9463C27.7035 17.0668 28.157 16.1957 28.4686 15.3559C28.8441 14.3511 29.0333 13.3633 29.0333 12.4154C29.0361 11.4106 28.8386 10.4342 28.4519 9.51473ZM17.018 24.6359C17.018 24.6359 7.11429 18.1428 7.11429 12.4154C7.11429 9.51473 9.45947 7.16343 12.3527 7.16343C14.3863 7.16343 16.1501 8.32485 17.018 10.0214C17.886 8.32485 19.6498 7.16343 21.6834 7.16343C24.5766 7.16343 26.9218 9.51473 26.9218 12.4154C26.9218 18.1428 17.018 24.6359 17.018 24.6359Z" fill="#937DC2"/>
</svg>
