<svg width="33" height="33" viewBox="0 0 33 33" fill="none" xmlns="http://www.w3.org/2000/svg">
<path d="M28.4193 10.5085C28.0469 9.62621 27.51 8.82672 26.8385 8.15475C26.1666 7.48077 25.3744 6.94517 24.5049 6.57708C23.6034 6.19387 22.6364 5.99772 21.6602 6.00002C20.2906 6.00002 18.9543 6.38378 17.7931 7.10865C17.5153 7.28206 17.2514 7.47251 17.0013 7.68003C16.7513 7.47251 16.4874 7.28206 16.2096 7.10865C15.0483 6.38378 13.7121 6.00002 12.3425 6.00002C11.3563 6.00002 10.4006 6.19332 9.49772 6.57708C8.6254 6.94662 7.8392 7.4782 7.16413 8.15475C6.49182 8.82596 5.95477 9.62564 5.5834 10.5085C5 11.2557 5 12.4017 5 13.4051C5 14.3517 5.18891 15.3381 5.56395 16.3416C5.87788 17.1802 6.32793 18.05 6.90299 18.9284C7.8142 20.3184 9.06712 21.7682 10.6228 23.2379C13.2009 25.674 15.754 27.3568 15.8623 27.4251L16.5207 27.8572C16.8124 28.0476 17.1875 28.0476 17.4792 27.8572L18.1376 27.4251C18.2459 27.354 20.7962 25.674 23.377 23.2379C24.9328 21.7682 26.1857 20.3184 27.0969 18.9284C27.672 18.05 28.1248 17.1802 28.4359 16.3416C28.811 15.3381 29 14.3517 29 13.4051C29.0028 12.4017 28.8054 11.4266 28.4193 10.5085Z" fill="#937DC2"/>
</svg>
