<svg width="33" height="33" viewBox="0 0 33 33" fill="none" xmlns="http://www.w3.org/2000/svg">
<path d="M28.4193 9.50846C28.0469 8.62621 27.51 7.82672 26.8385 7.15475C26.1666 6.48077 25.3744 5.94517 24.5049 5.57708C23.6034 5.19387 22.6364 4.99772 21.6602 5.00002C20.2906 5.00002 18.9543 5.38378 17.7931 6.10865C17.5153 6.28206 17.2514 6.47251 17.0013 6.68003C16.7513 6.47251 16.4874 6.28206 16.2096 6.10865C15.0483 5.38378 13.7121 5.00002 12.3425 5.00002C11.3563 5.00002 10.4006 5.19332 9.49772 5.57708C8.6254 5.94662 7.8392 6.4782 7.16413 7.15475C6.49182 7.82596 5.95477 8.62564 5.5834 9.50846C5 10.2557 5 11.4017 5 12.4051C5 13.3517 5.18891 14.3381 5.56395 15.3416C5.87788 16.1802 6.32793 17.05 6.90299 17.9284C7.8142 19.3184 9.06712 20.7682 10.6228 22.2379C13.2009 24.674 15.754 26.3568 15.8623 26.4251L16.5207 26.8572C16.8124 27.0476 17.1875 27.0476 17.4792 26.8572L18.1376 26.4251C18.2459 26.354 20.7962 24.674 23.377 22.2379C24.9328 20.7682 26.1857 19.3184 27.0969 17.9284C27.672 17.05 28.1248 16.1802 28.4359 15.3416C28.811 14.3381 29 13.3517 29 12.4051C29.0028 11.4017 28.8054 10.4266 28.4193 9.50846Z" fill="#937DC2"/>
</svg>
