<svg width="33" height="34" viewBox="0 0 33 34" fill="none" xmlns="http://www.w3.org/2000/svg">
<g clip-path="url(#clip0_2367_346)">
<path d="M16.5023 11.2411C13.591 11.2411 11.2152 13.617 11.2152 16.5283C11.2152 19.4396 13.591 21.8154 16.5023 21.8154C19.4136 21.8154 21.7895 19.4396 21.7895 16.5283C21.7895 13.617 19.4136 11.2411 16.5023 11.2411ZM32.413 16.528C32.413 14.3386 32.536 12.2316 32.413 10.0461C32.2901 7.50765 33.0907 3.65236 31.2345 1.79611C29.3742 -0.0641087 25.5229 0.74049 22.9845 0.617533C20.795 0.494577 18.6878 0.617533 16.5023 0.617533C14.3129 0.617533 12.2056 0.494577 10.0202 0.617533C7.48171 0.74049 3.62644 -0.0602169 1.77019 1.79603C-0.0900222 3.65625 0.714584 7.50765 0.591627 10.0461C0.46867 12.2355 0.591597 14.3426 0.591597 16.528C0.591597 18.7135 0.46867 20.8873 0.591627 23.0728C0.714584 25.6112 -0.0860813 29.4042 1.77017 31.2604C3.63039 33.1206 7.48171 32.316 10.0202 32.439C12.2096 32.5619 14.3169 32.439 16.5023 32.439C18.6917 32.439 20.799 32.5619 22.9845 32.439C25.5229 32.316 29.3782 33.1167 31.2345 31.2604C33.0947 29.4002 32.2901 26.1381 32.413 23.5997C32.54 21.4142 32.413 18.7175 32.413 16.528ZM16.5023 24.6633C12.0005 24.6633 8.36734 21.0301 8.36734 16.5283C8.36734 12.0265 12.0005 8.39331 16.5023 8.39331C21.0041 8.39331 24.6373 12.0265 24.6373 16.5283C24.6373 21.0301 21.0041 24.6633 16.5023 24.6633ZM24.9705 9.96002C23.9194 9.96002 23.0706 9.11122 23.0706 8.06013C23.0706 7.00905 23.9194 6.16025 24.9705 6.16025C26.0216 6.16025 26.8704 7.00905 26.8704 8.06013C26.8707 8.30972 26.8217 8.55691 26.7264 8.78756C26.631 9.0182 26.4911 9.22777 26.3146 9.40425C26.1381 9.58073 25.9285 9.72067 25.6979 9.81603C25.4673 9.9114 25.2201 9.96033 24.9705 9.96002Z" fill="white"/>
</g>
<defs>
<clipPath id="clip0_2367_346">
<rect width="33" height="33" fill="white" transform="translate(0 0.0249023)"/>
</clipPath>
</defs>
</svg>
