<svg width="33" height="33" viewBox="0 0 33 33" fill="none" xmlns="http://www.w3.org/2000/svg">
<path d="M27.4519 9.51473C27.079 8.63125 26.5413 7.83065 25.8689 7.15774C25.1961 6.48283 24.4028 5.94649 23.5321 5.57788C22.6293 5.19414 21.661 4.99772 20.6834 5.00002C19.3119 5.00002 17.9738 5.38431 16.8109 6.11019C16.5327 6.28384 16.2684 6.47456 16.018 6.68236C15.7677 6.47456 15.5034 6.28384 15.2252 6.11019C14.0623 5.38431 12.7242 5.00002 11.3527 5.00002C10.3651 5.00002 9.40812 5.19359 8.50398 5.57788C7.63045 5.94794 6.84316 6.48025 6.16714 7.15774C5.4939 7.82989 4.9561 8.63068 4.58421 9.51473C4.19752 10.4342 4 11.4106 4 12.4154C4 13.3633 4.18917 14.3511 4.56474 15.3559C4.8791 16.1957 5.32977 17.0668 5.90564 17.9463C6.81812 19.3383 8.07278 20.7901 9.63068 22.2618C12.2123 24.7013 14.7689 26.3865 14.8774 26.4548L15.5368 26.8875C15.8289 27.0782 16.2044 27.0782 16.4965 26.8875L17.1559 26.4548C17.2644 26.3837 19.8182 24.7013 22.4026 22.2618C23.9605 20.7901 25.2152 19.3383 26.1277 17.9463C26.7035 17.0668 27.157 16.1957 27.4686 15.3559C27.8441 14.3511 28.0333 13.3633 28.0333 12.4154C28.0361 11.4106 27.8386 10.4342 27.4519 9.51473ZM16.018 24.6359C16.018 24.6359 6.11429 18.1428 6.11429 12.4154C6.11429 9.51473 8.45947 7.16343 11.3527 7.16343C13.3863 7.16343 15.1501 8.32485 16.018 10.0214C16.886 8.32485 18.6498 7.16343 20.6834 7.16343C23.5766 7.16343 25.9218 9.51473 25.9218 12.4154C25.9218 18.1428 16.018 24.6359 16.018 24.6359Z" fill="#937DC2"/>
</svg>
