<svg width="33" height="33" viewBox="0 0 33 33" fill="none" xmlns="http://www.w3.org/2000/svg">
<path d="M27.4519 10.5147C27.079 9.63125 26.5413 8.83065 25.8689 8.15774C25.1961 7.48283 24.4028 6.94649 23.5321 6.57788C22.6293 6.19414 21.661 5.99772 20.6834 6.00002C19.3119 6.00002 17.9738 6.38431 16.8109 7.11019C16.5327 7.28384 16.2684 7.47456 16.018 7.68236C15.7677 7.47456 15.5034 7.28384 15.2252 7.11019C14.0623 6.38431 12.7242 6.00002 11.3527 6.00002C10.3651 6.00002 9.40812 6.19359 8.50398 6.57788C7.63045 6.94794 6.84316 7.48025 6.16714 8.15774C5.4939 8.82989 4.9561 9.63068 4.58421 10.5147C4.19752 11.4342 4 12.4106 4 13.4154C4 14.3633 4.18917 15.3511 4.56474 16.3559C4.8791 17.1957 5.32977 18.0668 5.90564 18.9463C6.81812 20.3383 8.07278 21.7901 9.63068 23.2618C12.2123 25.7013 14.7689 27.3865 14.8774 27.4548L15.5368 27.8875C15.8289 28.0782 16.2044 28.0782 16.4965 27.8875L17.1559 27.4548C17.2644 27.3837 19.8182 25.7013 22.4026 23.2618C23.9605 21.7901 25.2152 20.3383 26.1277 18.9463C26.7035 18.0668 27.157 17.1957 27.4686 16.3559C27.8441 15.3511 28.0333 14.3633 28.0333 13.4154C28.0361 12.4106 27.8386 11.4342 27.4519 10.5147ZM16.018 25.6359C16.018 25.6359 6.11429 19.1428 6.11429 13.4154C6.11429 10.5147 8.45947 8.16343 11.3527 8.16343C13.3863 8.16343 15.1501 9.32485 16.018 11.0214C16.886 9.32485 18.6498 8.16343 20.6834 8.16343C23.5766 8.16343 25.9218 10.5147 25.9218 13.4154C25.9218 19.1428 16.018 25.6359 16.018 25.6359Z" fill="#937DC2"/>
</svg>
