<svg width="33" height="33" viewBox="0 0 33 33" fill="none" xmlns="http://www.w3.org/2000/svg">
<path d="M27.4499 9.51473C27.077 8.63125 26.5394 7.83065 25.867 7.15774C25.1941 6.48283 24.4008 5.94649 23.5302 5.57788C22.6273 5.19414 21.659 4.99772 20.6814 5.00002C19.3099 5.00002 17.9718 5.38431 16.8089 6.11019C16.5308 6.28384 16.2665 6.47456 16.0161 6.68236C15.7657 6.47456 15.5014 6.28384 15.2232 6.11019C14.0604 5.38431 12.7223 5.00002 11.3508 5.00002C10.3632 5.00002 9.40617 5.19359 8.50203 5.57788C7.6285 5.94794 6.8412 6.48025 6.16519 7.15774C5.49195 7.82989 4.95414 8.63068 4.58226 9.51473C4.19557 10.4342 3.99805 11.4106 3.99805 12.4154C3.99805 13.3633 4.18722 14.3511 4.56278 15.3559C4.87714 16.1957 5.32782 17.0668 5.90369 17.9463C6.81617 19.3383 8.07083 20.7901 9.62872 22.2618C12.2104 24.7013 14.767 26.3865 14.8755 26.4548L15.5348 26.8875C15.8269 27.0782 16.2025 27.0782 16.4946 26.8875L17.1539 26.4548C17.2624 26.3837 19.8162 24.7013 22.4007 22.2618C23.9586 20.7901 25.2132 19.3383 26.1257 17.9463C26.7016 17.0668 27.155 16.1957 27.4666 15.3559C27.8422 14.3511 28.0314 13.3633 28.0314 12.4154C28.0341 11.4106 27.8366 10.4342 27.4499 9.51473ZM16.0161 24.6359C16.0161 24.6359 6.11233 18.1428 6.11233 12.4154C6.11233 9.51473 8.45752 7.16343 11.3508 7.16343C13.3844 7.16343 15.1481 8.32485 16.0161 10.0214C16.8841 8.32485 18.6478 7.16343 20.6814 7.16343C23.5747 7.16343 25.9199 9.51473 25.9199 12.4154C25.9199 18.1428 16.0161 24.6359 16.0161 24.6359Z" fill="#937DC2"/>
</svg>
