<svg width="33" height="33" viewBox="0 0 33 33" fill="none" xmlns="http://www.w3.org/2000/svg">
<path d="M27.4193 10.5085C27.0469 9.62621 26.51 8.82672 25.8385 8.15475C25.1666 7.48077 24.3744 6.94517 23.5049 6.57708C22.6034 6.19387 21.6364 5.99772 20.6602 6.00002C19.2906 6.00002 17.9543 6.38378 16.7931 7.10865C16.5153 7.28206 16.2514 7.47251 16.0013 7.68003C15.7513 7.47251 15.4874 7.28206 15.2096 7.10865C14.0483 6.38378 12.7121 6.00002 11.3425 6.00002C10.3563 6.00002 9.4006 6.19332 8.49772 6.57708C7.6254 6.94662 6.8392 7.4782 6.16413 8.15475C5.49182 8.82596 4.95477 9.62564 4.5834 10.5085C4 11.2557 4 12.4017 4 13.4051C4 14.3517 4.18891 15.3381 4.56395 16.3416C4.87788 17.1802 5.32793 18.05 5.90299 18.9284C6.8142 20.3184 8.06712 21.7682 9.62285 23.2379C12.2009 25.674 14.754 27.3568 14.8623 27.4251L15.5207 27.8572C15.8124 28.0476 16.1875 28.0476 16.4792 27.8572L17.1376 27.4251C17.2459 27.354 19.7962 25.674 22.377 23.2379C23.9328 21.7682 25.1857 20.3184 26.0969 18.9284C26.672 18.05 27.1248 17.1802 27.4359 16.3416C27.811 15.3381 28 14.3517 28 13.4051C28.0028 12.4017 27.8054 11.4266 27.4193 10.5085Z" fill="#937DC2"/>
</svg>
