<svg width="33" height="33" viewBox="0 0 33 33" fill="none" xmlns="http://www.w3.org/2000/svg">
<path d="M27.4519 10.5147C27.079 9.63125 26.5413 8.83065 25.8689 8.15774C25.1961 7.48283 24.4028 6.94649 23.5321 6.57788C22.6293 6.19414 21.661 5.99772 20.6834 6.00002C19.3119 6.00002 17.9738 6.38431 16.8109 7.11019C16.5327 7.28384 16.2684 7.47456 16.018 7.68236C15.7677 7.47456 15.5034 7.28384 15.2252 7.11019C14.0623 6.38431 12.7242 6.00002 11.3527 6.00002C10.3651 6.00002 9.40812 6.19359 8.50398 6.57788C7.63045 6.94794 6.84316 7.48025 6.16714 8.15774C5.4939 8.82989 4.9561 9.63068 4.58421 10.5147C4.19752 11.4342 4 12.4106 4 13.4154C4 14.3633 4.18917 15.3511 4.56474 16.3559C4.8791 17.1957 5.32977 18.0668 5.90564 18.9463C6.81812 20.3383 8.07278 21.7901 9.63068 23.2618C12.2123 25.7013 14.7689 27.3865 14.8774 27.4548L15.5368 27.8875C15.8289 28.0782 16.2044 28.0782 16.4965 27.8875L17.1559 27.4548C17.2644 27.3837 19.8182 25.7013 22.4026 23.2618C23.9605 21.7901 25.2152 20.3383 26.1277 18.9463C26.7035 18.0668 27.157 17.1957 27.4686 16.3559C27.8441 15.3511 28.0333 14.3633 28.0333 13.4154C28.0361 12.4106 27.8386 11.4342 27.4519 10.5147ZM16.018 25.6359C16.018 25.6359 6.11429 19.1428 6.11429 13.4154C6.11429 10.5147 8.45947 8.16343 11.3527 8.16343C13.3863 8.16343 15.1501 9.32485 16.018 11.0214C16.886 9.32485 18.6498 8.16343 20.6834 8.16343C23.5766 8.16343 25.9218 10.5147 25.9218 13.4154C25.9218 19.1428 16.018 25.6359 16.018 25.6359Z" fill="#937DC2"/>
<path d="M27.4193 10.5085C27.0469 9.62621 26.51 8.82672 25.8385 8.15475C25.1666 7.48077 24.3744 6.94517 23.5049 6.57708C22.6034 6.19387 21.6364 5.99772 20.6602 6.00002C19.2906 6.00002 17.9543 6.38378 16.7931 7.10865C16.5153 7.28206 16.2514 7.47251 16.0013 7.68003C15.7513 7.47251 15.4874 7.28206 15.2096 7.10865C14.0483 6.38378 12.7121 6.00002 11.3425 6.00002C10.3563 6.00002 9.4006 6.19332 8.49772 6.57708C7.6254 6.94662 6.8392 7.4782 6.16413 8.15475C5.49182 8.82596 4.95477 9.62564 4.5834 10.5085C4 11.2557 4 12.4017 4 13.4051C4 14.3517 4.18891 15.3381 4.56395 16.3416C4.87788 17.1802 5.32793 18.05 5.90299 18.9284C6.8142 20.3184 8.06712 21.7682 9.62285 23.2379C12.2009 25.674 14.754 27.3568 14.8623 27.4251L15.5207 27.8572C15.8124 28.0476 16.1875 28.0476 16.4792 27.8572L17.1376 27.4251C17.2459 27.354 19.7962 25.674 22.377 23.2379C23.9328 21.7682 25.1857 20.3184 26.0969 18.9284C26.672 18.05 27.1248 17.1802 27.4359 16.3416C27.811 15.3381 28 14.3517 28 13.4051C28.0028 12.4017 27.8054 11.4266 27.4193 10.5085Z" fill="#937DC2"/>
</svg>
