<svg width="16" height="16" viewBox="0 0 16 16" fill="none" xmlns="http://www.w3.org/2000/svg">
<path d="M1 2.59875C1.885 2.22875 3.154 1.82975 4.388 1.70575C5.718 1.57175 6.846 1.76875 7.5 2.45775V12.2038C6.565 11.6738 5.38 11.6008 4.287 11.7108C3.107 11.8308 1.917 12.1718 1 12.5218V2.59875ZM8.5 2.45775C9.154 1.76875 10.282 1.57175 11.612 1.70575C12.846 1.82975 14.115 2.22875 15 2.59875V12.5218C14.082 12.1718 12.893 11.8298 11.713 11.7118C10.619 11.6008 9.435 11.6728 8.5 12.2038V2.45775ZM8 1.55375C7.015 0.706755 5.587 0.580755 4.287 0.710755C2.773 0.863755 1.245 1.38275 0.293 1.81575C0.205649 1.85548 0.131575 1.91951 0.079621 2.00019C0.0276667 2.08087 2.65714e-05 2.17479 0 2.27075L0 13.2708C2.3162e-05 13.3544 0.0210371 13.4367 0.0611171 13.5102C0.101197 13.5836 0.159062 13.6458 0.229411 13.6911C0.29976 13.7363 0.380345 13.7632 0.463783 13.7693C0.547222 13.7754 0.630848 13.7604 0.707 13.7258C1.589 13.3258 3.01 12.8448 4.387 12.7058C5.796 12.5638 6.977 12.7928 7.61 13.5828C7.65685 13.6412 7.71622 13.6883 7.78372 13.7207C7.85122 13.7531 7.92513 13.7699 8 13.7699C8.07487 13.7699 8.14878 13.7531 8.21628 13.7207C8.28378 13.6883 8.34315 13.6412 8.39 13.5828C9.023 12.7928 10.204 12.5638 11.612 12.7058C12.99 12.8448 14.412 13.3258 15.293 13.7258C15.3692 13.7604 15.4528 13.7754 15.5362 13.7693C15.6197 13.7632 15.7002 13.7363 15.7706 13.6911C15.8409 13.6458 15.8988 13.5836 15.9389 13.5102C15.979 13.4367 16 13.3544 16 13.2708V2.27075C16 2.17479 15.9723 2.08087 15.9204 2.00019C15.8684 1.91951 15.7944 1.85548 15.707 1.81575C14.755 1.38275 13.227 0.863755 11.713 0.710755C10.413 0.579755 8.985 0.706755 8 1.55375Z" fill="#3E3E3E"/>
</svg>
