<svg width="49" height="50" viewBox="0 0 49 50" fill="none" xmlns="http://www.w3.org/2000/svg">
<path d="M21.63 12.5128C19.0892 11.2747 16.2349 10.58 13.2183 10.58C10.2017 10.58 7.34743 11.2747 4.80664 12.5128V36.5461C7.34744 35.308 10.2017 34.6133 13.2183 34.6133C17.2285 34.6133 20.952 35.841 24.0333 37.9411C27.1146 35.841 30.8381 34.6133 34.8483 34.6133C37.8649 34.6133 40.7192 35.308 43.26 36.5461V12.5128C40.7192 11.2747 37.8649 10.58 34.8483 10.58C31.8317 10.58 28.9774 11.2747 26.4366 12.5128V29.8066C26.4366 31.1339 25.3606 32.21 24.0333 32.21C22.706 32.21 21.63 31.1339 21.63 29.8066V12.5128Z" fill="#382C2C"/>
</svg>
