<svg width="21" height="20" viewBox="0 0 21 20" fill="none" xmlns="http://www.w3.org/2000/svg">
<path fill-rule="evenodd" clip-rule="evenodd" d="M10.9103 17.7261C15.3716 17.7261 18.9882 14.3079 18.9882 10.0913C18.9882 5.87475 15.3716 2.45654 10.9103 2.45654C6.44899 2.45654 2.8324 5.87475 2.8324 10.0913C2.8324 14.3079 6.44899 17.7261 10.9103 17.7261ZM11.92 6.27393C11.92 5.74686 11.4679 5.31958 10.9103 5.31958C10.3526 5.31958 9.90054 5.74686 9.90054 6.27393V10.0913C9.90054 10.3444 10.0069 10.5872 10.1963 10.7661L13.0522 13.4654C13.4466 13.8381 14.0859 13.8381 14.4802 13.4654C14.8746 13.0927 14.8746 12.4885 14.4802 12.1158L11.92 9.69601V6.27393Z" fill="white" fill-opacity="0.8"/>
</svg>
