<svg width="25" height="25" viewBox="0 0 25 25" fill="none" xmlns="http://www.w3.org/2000/svg">
<path d="M3.71534 1.21143C3.05168 1.21143 2.51367 1.74943 2.51367 2.41309C2.51367 3.07675 3.05168 3.61476 3.71534 3.61476H5.18044L5.54762 5.08349C5.55147 5.10047 5.55569 5.11731 5.56025 5.13402L7.19119 11.6578L6.11861 12.7303C4.6046 14.2444 5.67688 16.8331 7.81803 16.8331H18.1353C18.7989 16.8331 19.3369 16.2951 19.3369 15.6314C19.3369 14.9678 18.7989 14.4298 18.1353 14.4298L7.81803 14.4298L9.01969 13.2281H16.9337C17.3888 13.2281 17.8049 12.9709 18.0085 12.5638L21.6135 5.35383C21.7997 4.98132 21.7798 4.53894 21.5609 4.18467C21.3419 3.8304 20.9551 3.61476 20.5387 3.61476H7.65774L7.28446 2.12165C7.15072 1.5867 6.67008 1.21143 6.11867 1.21143H3.71534Z" fill="white"/>
<path d="M19.337 19.8373C19.337 20.8328 18.53 21.6398 17.5345 21.6398C16.539 21.6398 15.732 20.8328 15.732 19.8373C15.732 18.8418 16.539 18.0348 17.5345 18.0348C18.53 18.0348 19.337 18.8418 19.337 19.8373Z" fill="white"/>
<path d="M7.92117 21.6398C8.91667 21.6398 9.72367 20.8328 9.72367 19.8373C9.72367 18.8418 8.91667 18.0348 7.92117 18.0348C6.92568 18.0348 6.11867 18.8418 6.11867 19.8373C6.11867 20.8328 6.92568 21.6398 7.92117 21.6398Z" fill="white"/>
</svg>
