<svg width="34" height="33" viewBox="0 0 34 33" fill="none" xmlns="http://www.w3.org/2000/svg">
<g clip-path="url(#clip0_2367_350)">
<path d="M28.5072 0.591309H4.93576C2.98375 0.591309 0.81076 2.74514 0.81076 4.67354V28.3305C0.81076 30.2589 2.98375 32.37 4.93576 32.37L28.5072 32.4127C30.4592 32.4127 32.6322 30.2589 32.6322 28.3305V4.71631C32.6322 2.78791 30.4592 0.591309 28.5072 0.591309ZM26.0838 11.7575C26.0985 11.9613 26.0985 12.1723 26.0985 12.3761C26.0985 18.6852 21.2369 25.9549 12.3534 25.9549C9.61322 25.9549 7.07192 25.169 4.93576 23.8155C5.32616 23.8591 5.70183 23.8737 6.0996 23.8737C8.36098 23.8737 10.4382 23.1169 12.0956 21.8361C9.97415 21.7925 8.19156 20.4171 7.58018 18.5251C8.32415 18.6343 8.99447 18.6343 9.76054 18.4378C7.55072 17.9939 5.89335 16.0728 5.89335 13.7514V13.6932C6.5342 14.0498 7.28554 14.2681 8.07371 14.2972C7.41108 13.8618 6.86787 13.2711 6.49256 12.5778C6.11725 11.8845 5.92151 11.1102 5.92281 10.324C5.92281 9.43618 6.15853 8.62116 6.57839 7.9153C8.95764 10.8115 12.5302 12.7035 16.5373 12.9073C15.8523 9.66905 18.3052 7.04206 21.2516 7.04206C22.6438 7.04206 23.896 7.61694 24.78 8.54839C25.8701 8.34464 26.9161 7.9444 27.8442 7.39863C27.4833 8.50473 26.7246 9.43618 25.7228 10.0256C26.6951 9.92374 27.638 9.65449 28.5072 9.28337C27.8516 10.2366 27.0266 11.0808 26.0838 11.7575Z" fill="white"/>
</g>
<defs>
<clipPath id="clip0_2367_350">
<rect width="33" height="33" fill="white" transform="translate(0.22226)"/>
</clipPath>
</defs>
</svg>
