<svg width="16" height="20" viewBox="0 0 16 20" fill="none" xmlns="http://www.w3.org/2000/svg">
<path opacity="0.4" d="M7.99118 16.6215L1.49945 19.8641C1.00921 20.1302 0.397683 19.9525 0.123484 19.4643C0.0434041 19.3108 0.00105752 19.1402 0 18.9668V11.7088C0 12.4284 0.405733 12.8726 1.47299 13.3701L7.99118 16.6215Z" fill="#937DC2"/>
<path d="M11.0695 0C13.7773 0 15.9735 1.06605 16 3.79337V18.9668C15.9989 19.1374 15.9565 19.3051 15.8765 19.4554C15.7479 19.7007 15.5259 19.8827 15.2615 19.9598C14.997 20.0368 14.7128 20.0023 14.4741 19.8641L7.99118 16.6215L1.47299 13.3701C0.405733 12.8726 0 12.4284 0 11.7088V3.79337C0 1.06605 2.19625 0 4.89526 0H11.0695ZM11.7486 6.04096H4.22492C3.79137 6.04096 3.43991 6.39495 3.43991 6.83162C3.43991 7.26828 3.79137 7.62227 4.22492 7.62227H11.7486C12.1822 7.62227 12.5336 7.26828 12.5336 6.83162C12.5336 6.39495 12.1822 6.04096 11.7486 6.04096Z" fill="#937DC2"/>
</svg>
