<svg width="20" height="19" viewBox="0 0 20 19" fill="none" xmlns="http://www.w3.org/2000/svg">
<path d="M1.20167 0.553955C0.538005 0.553955 0 1.0173 0 1.58887C0 2.16043 0.538005 2.62378 1.20167 2.62378H2.66677L3.03395 3.88869C3.0378 3.90331 3.04202 3.91782 3.04658 3.9322L4.67752 9.55064L3.60494 10.4744C2.09093 11.7783 3.16321 14.0078 5.30435 14.0078H15.6216C16.2853 14.0078 16.8233 13.5444 16.8233 12.9729C16.8233 12.4013 16.2853 11.938 15.6216 11.938L5.30436 11.938L6.50602 10.9031H14.42C14.8752 10.9031 15.2913 10.6816 15.4948 10.331L19.0998 4.12151C19.2861 3.8007 19.2662 3.41971 19.0472 3.1146C18.8282 2.80949 18.4415 2.62378 18.025 2.62378H5.14407L4.77079 1.33786C4.63705 0.877155 4.15641 0.553955 3.605 0.553955H1.20167Z" fill="white"/>
<path d="M16.8233 16.5951C16.8233 17.4524 16.0163 18.1474 15.0208 18.1474C14.0253 18.1474 13.2183 17.4524 13.2183 16.5951C13.2183 15.7377 14.0253 15.0427 15.0208 15.0427C16.0163 15.0427 16.8233 15.7377 16.8233 16.5951Z" fill="white"/>
<path d="M5.4075 18.1474C6.40299 18.1474 7.21 17.4524 7.21 16.5951C7.21 15.7377 6.40299 15.0427 5.4075 15.0427C4.41201 15.0427 3.605 15.7377 3.605 16.5951C3.605 17.4524 4.41201 18.1474 5.4075 18.1474Z" fill="white"/>
</svg>
