<svg width="21" height="20" viewBox="0 0 21 20" fill="none" xmlns="http://www.w3.org/2000/svg">
<path d="M2.83555 6.34022L10.9104 10.1557L18.9853 6.34022C18.9554 5.85393 18.7299 5.39684 18.355 5.06257C17.9801 4.7283 17.4842 4.54215 16.9688 4.54224H4.85199C4.33661 4.54215 3.84069 4.7283 3.4658 5.06257C3.09092 5.39684 2.86544 5.85393 2.83555 6.34022Z" fill="white" fill-opacity="0.8"/>
<path d="M18.9883 8.47223L10.9104 12.2896L2.83252 8.47223V14.0857C2.83252 14.5919 3.04528 15.0774 3.42401 15.4353C3.80273 15.7933 4.31639 15.9944 4.85199 15.9944H16.9688C17.5044 15.9944 18.0181 15.7933 18.3968 15.4353C18.7755 15.0774 18.9883 14.5919 18.9883 14.0857V8.47223Z" fill="white" fill-opacity="0.8"/>
</svg>
