<svg width="21" height="20" viewBox="0 0 21 20" fill="none" xmlns="http://www.w3.org/2000/svg">
<path d="M2.8324 3.23804C2.8324 2.71097 3.28447 2.28369 3.84213 2.28369H6.01597C6.50956 2.28369 6.93082 2.62097 7.01196 3.08114L7.75847 7.3145C7.83135 7.72776 7.61052 8.13762 7.21404 8.32499L5.65083 9.06372C6.778 11.711 9.01368 13.8241 11.8146 14.8894L12.5962 13.4119C12.7945 13.0372 13.2281 12.8285 13.6654 12.8974L18.1444 13.6029C18.6313 13.6796 18.9882 14.0778 18.9882 14.5443V16.5989C18.9882 17.126 18.5361 17.5532 17.9784 17.5532H15.959C8.70936 17.5532 2.8324 11.9986 2.8324 5.14673V3.23804Z" fill="white" fill-opacity="0.8"/>
</svg>
