<svg width="33" height="34" viewBox="0 0 33 34" fill="none" xmlns="http://www.w3.org/2000/svg">
<g clip-path="url(#clip0_2367_348)">
<path d="M27.2639 0.0266113H4.71429C2.12143 0.0266113 0 2.14804 0 4.7409V27.2929C0 29.8857 2.12143 32.0072 4.71429 32.0072H27.2663C29.8591 32.0072 31.9805 29.8857 31.9805 27.2929V4.7409C31.9782 2.14804 29.8591 0.0266113 27.2639 0.0266113ZM26.961 17.0959H23.166V30.8262H17.4876V17.0959H14.6473V12.3627H17.4876V9.52236C17.4876 5.66136 19.0905 3.36433 23.6516 3.36433H27.443V8.09629H25.0717C23.2992 8.09629 23.1813 8.75983 23.1813 9.99379L23.166 12.3627H27.4619L26.9598 17.0959H26.961Z" fill="white"/>
</g>
<defs>
<clipPath id="clip0_2367_348">
<rect width="33" height="33" fill="white" transform="translate(0 0.0249023)"/>
</clipPath>
</defs>
</svg>
