<svg width="21" height="21" viewBox="0 0 21 21" fill="none" xmlns="http://www.w3.org/2000/svg">
<path opacity="0.6" fill-rule="evenodd" clip-rule="evenodd" d="M8.01126 4.00546C5.79906 4.00546 4.00571 5.79881 4.00571 8.01102C4.00571 10.2232 5.79906 12.0166 8.01126 12.0166C10.2235 12.0166 12.0168 10.2232 12.0168 8.01102C12.0168 5.79881 10.2235 4.00546 8.01126 4.00546ZM2.00293 8.01102C2.00293 4.69271 4.69295 2.00269 8.01126 2.00269C11.3296 2.00269 14.0196 4.69271 14.0196 8.01102C14.0196 9.30865 13.6082 10.5102 12.9088 11.4924L17.7319 16.3154C18.1229 16.7065 18.1229 17.3405 17.7319 17.7316C17.3408 18.1227 16.7067 18.1227 16.3157 17.7316L11.4926 12.9086C10.5104 13.608 9.30889 14.0194 8.01126 14.0194C4.69295 14.0194 2.00293 11.3293 2.00293 8.01102Z" fill="white" fill-opacity="0.86"/>
</svg>
