<svg width="21" height="21" viewBox="0 0 21 21" fill="none" xmlns="http://www.w3.org/2000/svg">
<path opacity="0.6" fill-rule="evenodd" clip-rule="evenodd" d="M8.93985 4.04404C6.72764 4.04404 4.9343 5.83739 4.9343 8.04959C4.9343 10.2618 6.72764 12.0551 8.93985 12.0551C11.1521 12.0551 12.9454 10.2618 12.9454 8.04959C12.9454 5.83739 11.1521 4.04404 8.93985 4.04404ZM2.93152 8.04959C2.93152 4.73128 5.62154 2.04126 8.93985 2.04126C12.2582 2.04126 14.9482 4.73128 14.9482 8.04959C14.9482 9.34722 14.5368 10.5488 13.8374 11.531L18.6604 16.354C19.0515 16.7451 19.0515 17.3791 18.6604 17.7702C18.2694 18.1612 17.6353 18.1612 17.2443 17.7702L12.4212 12.9471C11.439 13.6466 10.2375 14.0579 8.93985 14.0579C5.62154 14.0579 2.93152 11.3679 2.93152 8.04959Z" fill="#937DC2" fill-opacity="0.86" stroke="#937DC2" stroke-linecap="round" stroke-linejoin="round"/>
</svg>
