<svg width="49" height="49" viewBox="0 0 49 49" fill="none" xmlns="http://www.w3.org/2000/svg">
<g clip-path="url(#clip0_2564_690)">
<path d="M23.081 2.93112C23.3807 2.00852 24.6859 2.00853 24.9857 2.93112L29.2043 15.9147C29.3384 16.3273 29.7229 16.6066 30.1567 16.6066H43.8084C44.7785 16.6066 45.1818 17.848 44.397 18.4182L33.3526 26.4424C33.0016 26.6974 32.8547 27.1494 32.9888 27.562L37.2074 40.5456C37.5072 41.4682 36.4512 42.2354 35.6664 41.6652L24.6219 33.6409C24.271 33.3859 23.7957 33.3859 23.4447 33.6409L12.4003 41.6652C11.6154 42.2354 10.5595 41.4682 10.8593 40.5456L15.0779 27.562C15.2119 27.1494 15.0651 26.6974 14.7141 26.4424L3.66963 18.4182C2.88483 17.848 3.28816 16.6066 4.25823 16.6066H17.91C18.3438 16.6066 18.7283 16.3273 18.8623 15.9147L23.081 2.93112Z" fill="#382C2C"/>
</g>
<defs>
<clipPath id="clip0_2564_690">
<rect width="48.0667" height="48.0667" fill="white"/>
</clipPath>
</defs>
</svg>
