<svg width="24" height="23" viewBox="0 0 24 23" fill="none" xmlns="http://www.w3.org/2000/svg">
<path d="M23.4193 5.09001C23.0469 4.20775 22.51 3.40826 21.8385 2.73629C21.1666 2.06232 20.3744 1.52672 19.5049 1.15862C18.6034 0.775412 17.6364 0.579264 16.6602 0.581563C15.2906 0.581563 13.9543 0.965321 12.7931 1.6902C12.5153 1.8636 12.2514 2.05406 12.0013 2.26157C11.7513 2.05406 11.4874 1.8636 11.2096 1.6902C10.0483 0.965321 8.71208 0.581563 7.34248 0.581563C6.35626 0.581563 5.4006 0.774863 4.49772 1.15862C3.6254 1.52817 2.83921 2.05974 2.16413 2.73629C1.49182 3.4075 0.954767 4.20718 0.583398 5.09001C0 5.83729 0 6.98321 0 7.98667C0 8.93327 0.18891 9.91967 0.563952 10.9231C0.877876 11.7617 1.32793 12.6316 1.90299 13.5099C2.8142 14.9 4.06712 16.3497 5.62285 17.8194C8.20091 20.2555 10.754 21.9384 10.8623 22.0066L11.5207 22.4387C11.8124 22.6292 12.1875 22.6292 12.4792 22.4387L13.1376 22.0066C13.2459 21.9355 15.7962 20.2555 18.377 17.8194C19.9328 16.3497 21.1857 14.9 22.0969 13.5099C22.672 12.6316 23.1248 11.7617 23.4359 10.9231C23.811 9.91967 24 8.93327 24 7.98667C24.0028 6.98321 23.8054 6.00818 23.4193 5.09001Z" fill="#937DC2"/>
</svg>
