<svg width="25" height="23" viewBox="0 0 25 23" fill="none" xmlns="http://www.w3.org/2000/svg">
<path d="M23.4519 4.79695C23.079 3.91347 22.5413 3.11287 21.8689 2.43997C21.1961 1.76506 20.4028 1.22871 19.5321 0.860106C18.6293 0.476365 17.661 0.279944 16.6834 0.282247C15.3119 0.282247 13.9738 0.666537 12.8109 1.39242C12.5327 1.56606 12.2684 1.75678 12.018 1.96459C11.7677 1.75678 11.5034 1.56606 11.2252 1.39242C10.0623 0.666537 8.72421 0.282247 7.35271 0.282247C6.36511 0.282247 5.40812 0.475815 4.50398 0.860106C3.63045 1.23016 2.84316 1.76248 2.16714 2.43997C1.4939 3.11211 0.956096 3.9129 0.584211 4.79695C0.197519 5.7164 0 6.69279 0 7.69764C0 8.64555 0.189173 9.63332 0.564737 10.6382C0.879098 11.4779 1.32977 12.349 1.90564 13.2286C2.81812 14.6206 4.07278 16.0723 5.63068 17.544C8.21233 19.9836 10.7689 21.6687 10.8774 21.7371L11.5368 22.1697C11.8289 22.3605 12.2044 22.3605 12.4965 22.1697L13.1559 21.7371C13.2644 21.6659 15.8182 19.9836 18.4026 17.544C19.9605 16.0723 21.2152 14.6206 22.1277 13.2286C22.7035 12.349 23.157 11.4779 23.4686 10.6382C23.8441 9.63332 24.0333 8.64555 24.0333 7.69764C24.0361 6.69279 23.8386 5.7164 23.4519 4.79695ZM12.018 19.9181C12.018 19.9181 2.11429 13.425 2.11429 7.69764C2.11429 4.79695 4.45947 2.44566 7.35271 2.44566C9.38632 2.44566 11.1501 3.60707 12.018 5.30365C12.886 3.60707 14.6498 2.44566 16.6834 2.44566C19.5766 2.44566 21.9218 4.79695 21.9218 7.69764C21.9218 13.425 12.018 19.9181 12.018 19.9181Z" fill="#937DC2"/>
</svg>
