<svg width="25" height="23" viewBox="0 0 25 23" fill="none" xmlns="http://www.w3.org/2000/svg">
<path d="M23.4519 4.76228C23.079 3.8788 22.5413 3.0782 21.8689 2.4053C21.1961 1.73039 20.4028 1.19405 19.5321 0.825438C18.6293 0.441697 17.661 0.245276 16.6834 0.247579C15.3119 0.247579 13.9738 0.631869 12.8109 1.35775C12.5327 1.53139 12.2684 1.72212 12.018 1.92992C11.7677 1.72212 11.5034 1.53139 11.2252 1.35775C10.0623 0.631869 8.72421 0.247579 7.35271 0.247579C6.36511 0.247579 5.40812 0.441147 4.50398 0.825438C3.63045 1.1955 2.84316 1.72781 2.16714 2.4053C1.4939 3.07745 0.956096 3.87824 0.584211 4.76228C0.197519 5.68174 0 6.65812 0 7.66297C0 8.61088 0.189173 9.59865 0.564737 10.6035C0.879098 11.4432 1.32977 12.3143 1.90564 13.1939C2.81812 14.5859 4.07278 16.0377 5.63068 17.5094C8.21233 19.9489 10.7689 21.6341 10.8774 21.7024L11.5368 22.1351C11.8289 22.3258 12.2044 22.3258 12.4965 22.1351L13.1559 21.7024C13.2644 21.6312 15.8182 19.9489 18.4026 17.5094C19.9605 16.0377 21.2152 14.5859 22.1277 13.1939C22.7035 12.3143 23.157 11.4432 23.4686 10.6035C23.8441 9.59865 24.0333 8.61088 24.0333 7.66297C24.0361 6.65812 23.8386 5.68174 23.4519 4.76228ZM12.018 19.8834C12.018 19.8834 2.11429 13.3903 2.11429 7.66297C2.11429 4.76228 4.45947 2.41099 7.35271 2.41099C9.38632 2.41099 11.1501 3.57241 12.018 5.26898C12.886 3.57241 14.6498 2.41099 16.6834 2.41099C19.5766 2.41099 21.9218 4.76228 21.9218 7.66297C21.9218 13.3903 12.018 19.8834 12.018 19.8834Z" fill="#937DC2"/>
</svg>
