<svg width="25" height="23" viewBox="0 0 25 23" fill="none" xmlns="http://www.w3.org/2000/svg">
<path d="M23.4519 5.02351C23.079 4.14004 22.5413 3.33944 21.8689 2.66653C21.1961 1.99162 20.4028 1.45528 19.5321 1.08667C18.6293 0.702927 17.661 0.506507 16.6834 0.508809C15.3119 0.508809 13.9738 0.8931 12.8109 1.61898C12.5327 1.79262 12.2684 1.98335 12.018 2.19115C11.7677 1.98335 11.5034 1.79262 11.2252 1.61898C10.0623 0.8931 8.72421 0.508809 7.35271 0.508809C6.36511 0.508809 5.40812 0.702378 4.50398 1.08667C3.63045 1.45673 2.84316 1.98904 2.16714 2.66653C1.4939 3.33868 0.956096 4.13947 0.584211 5.02351C0.197519 5.94297 0 6.91935 0 7.9242C0 8.87212 0.189173 9.85988 0.564737 10.8647C0.879098 11.7045 1.32977 12.5755 1.90564 13.4551C2.81812 14.8471 4.07278 16.2989 5.63068 17.7706C8.21233 20.2101 10.7689 21.8953 10.8774 21.9636L11.5368 22.3963C11.8289 22.587 12.2044 22.587 12.4965 22.3963L13.1559 21.9636C13.2644 21.8925 15.8182 20.2101 18.4026 17.7706C19.9605 16.2989 21.2152 14.8471 22.1277 13.4551C22.7035 12.5755 23.157 11.7045 23.4686 10.8647C23.8441 9.85988 24.0333 8.87212 24.0333 7.9242C24.0361 6.91935 23.8386 5.94297 23.4519 5.02351ZM12.018 20.1446C12.018 20.1446 2.11429 13.6516 2.11429 7.9242C2.11429 5.02351 4.45947 2.67222 7.35271 2.67222C9.38632 2.67222 11.1501 3.83364 12.018 5.53021C12.886 3.83364 14.6498 2.67222 16.6834 2.67222C19.5766 2.67222 21.9218 5.02351 21.9218 7.9242C21.9218 13.6516 12.018 20.1446 12.018 20.1446Z" fill="#937DC2"/>
</svg>
