<svg width="15" height="13" viewBox="0 0 15 13" fill="none" xmlns="http://www.w3.org/2000/svg">
<path d="M14.6371 2.60858C14.4044 2.12506 14.0688 1.68689 13.6491 1.31862C13.2292 0.94924 12.734 0.655703 12.1906 0.453966C11.6272 0.243946 11.0228 0.136446 10.4127 0.137706C9.55665 0.137706 8.72149 0.348026 7.99571 0.745298C7.82208 0.840332 7.65713 0.944713 7.50086 1.05844C7.34459 0.944713 7.17964 0.840332 7.00601 0.745298C6.28023 0.348026 5.44507 0.137706 4.58907 0.137706C3.97268 0.137706 3.37539 0.243645 2.81109 0.453966C2.26588 0.656496 1.77451 0.947829 1.35259 1.31862C0.932393 1.68648 0.596731 2.12474 0.364625 2.60858C0.123278 3.11179 0 3.64616 0 4.19611C0 4.7149 0.118069 5.2555 0.352471 5.80545C0.548674 6.26504 0.829956 6.74176 1.18937 7.22316C1.75888 7.98499 2.54196 8.77953 3.51429 9.58498C5.12559 10.9201 6.72126 11.8424 6.78897 11.8798L7.20048 12.1166C7.38279 12.221 7.61719 12.221 7.7995 12.1166L8.21101 11.8798C8.27873 11.8409 9.87266 10.9201 11.4857 9.58498C12.458 8.77953 13.2411 7.98499 13.8106 7.22316C14.17 6.74176 14.453 6.26504 14.6475 5.80545C14.8819 5.2555 15 4.7149 15 4.19611C15.0017 3.64616 14.8784 3.11179 14.6371 2.60858ZM7.50086 10.8843C7.50086 10.8843 1.3196 7.33066 1.3196 4.19611C1.3196 2.60858 2.7833 1.32173 4.58907 1.32173C5.85831 1.32173 6.95913 1.95737 7.50086 2.88589C8.04259 1.95737 9.14341 1.32173 10.4127 1.32173C12.2184 1.32173 13.6821 2.60858 13.6821 4.19611C13.6821 7.33066 7.50086 10.8843 7.50086 10.8843Z" fill="#B0A0D2"/>
</svg>
