<svg width="24" height="23" viewBox="0 0 24 23" fill="none" xmlns="http://www.w3.org/2000/svg">
<path d="M23.4193 4.95378C23.0469 4.07152 22.51 3.27203 21.8385 2.60006C21.1666 1.92609 20.3744 1.39049 19.5049 1.02239C18.6034 0.639182 17.6364 0.443033 16.6602 0.445332C15.2906 0.445332 13.9543 0.82909 12.7931 1.55397C12.5153 1.72737 12.2514 1.91783 12.0013 2.12534C11.7513 1.91783 11.4874 1.72737 11.2096 1.55397C10.0483 0.82909 8.71208 0.445332 7.34248 0.445332C6.35626 0.445332 5.4006 0.638633 4.49772 1.02239C3.6254 1.39194 2.8392 1.92351 2.16413 2.60006C1.49182 3.27127 0.954767 4.07095 0.583398 4.95378C0 5.70106 0 6.84698 0 7.85044C0 8.79704 0.18891 9.78344 0.563952 10.7869C0.877876 11.6255 1.32793 12.4953 1.90299 13.3737C2.8142 14.7638 4.06712 16.2135 5.62285 17.6832C8.20091 20.1193 10.754 21.8022 10.8623 21.8704L11.5207 22.3025C11.8124 22.4929 12.1875 22.4929 12.4792 22.3025L13.1376 21.8704C13.2459 21.7993 15.7962 20.1193 18.377 17.6832C19.9328 16.2135 21.1857 14.7638 22.0969 13.3737C22.672 12.4953 23.1248 11.6255 23.4359 10.7869C23.811 9.78344 24 8.79704 24 7.85044C24.0028 6.84698 23.8054 5.87195 23.4193 4.95378Z" fill="#937DC2"/>
</svg>
